<?xml version="1.0" encoding="utf-8"?>
<!-- Generator: Adobe Illustrator 25.3.1, SVG Export Plug-In . SVG Version: 6.00 Build 0)  -->
<svg version="1.1" id="レイヤー_1" xmlns="http://www.w3.org/2000/svg" xmlns:xlink="http://www.w3.org/1999/xlink" x="0px"
	 y="0px" viewBox="0 0 705 412.3" style="enable-background:new 0 0 705 412.3;" xml:space="preserve">
<style type="text/css">
	.st0{fill:#41C1EB;}
</style>
<g id="レイヤー_2_1_">
	<g id="レイヤー_1-2">
		<path class="st0" d="M696,37.3h-94.5c-4.9,0-8.9,4-8.9,8.9V54h-17.8c-21.2-12.5-74.3-40-93.8-43.1c-1.3-0.2-130.3-19.1-158.9-6.7
			c-6.4,2.9-12.4,6.5-18,10.7c-35.2-2.2-71.8,11.5-104.2,23.5c-20.6,7.7-39.9,14.9-52.4,14.9l-35.2,0.2v-7.3c0-4.9-4-8.9-8.9-8.9
			l0,0H8.9c-4.9,0-8.9,4-8.9,8.9c0,0,0,0,0,0v220.5c0,4.9,4,8.9,8.9,8.9h94.5c4.9,0,8.9-4,8.9-8.9v-7.9c7.5,0.9,13.5,2.2,18,4
			c-3.2,6.3-4.5,10.7-4.7,13.6c-1.9,21.9,15.7,43.7,33.4,50.4c3.3,1.3,6.9,2,10.5,2h0.1c0.5,3.8,1.7,7.6,3.5,11
			c7.6,14.5,25.7,25.4,43.2,26h1.5c2.3,0,4.7-0.2,7-0.6c0.6,3.2,1.6,6.4,3.1,9.3c4,8.2,11.3,15.7,20.6,21.1c8.6,5,18,7.7,26.5,7.7
			h0.3c9.1-0.1,16.7-3.2,21.8-9c2.6,3.3,5.8,6.2,9.4,8.4c10.1,6.1,21.6,9.3,33.3,9.4c8,0,15.4-1.8,20.6-5.9
			c4.9-3.9,9.8-10.6,14.3-18.6c8.8,5.5,24.1,14.3,36.3,18.6c2.6,0.9,5.2,1.4,8,1.4c10.6,0,21.2-7,28.5-19.3
			c2.6-4.3,4.4-8.9,5.5-13.8c4.5,2,9.3,3,14.2,3c2.6,0,5.3-0.3,7.8-0.8c9-2,17.2-6.7,23.5-13.6c6.6-7.3,10.1-15.7,10.3-24
			c0.5,0,0.9,0,1.4,0c2.1,0,4.2-0.2,6.3-0.6c8.2-1.8,15.7-6.2,21.3-12.5c6.9-7.4,11-17,11.7-27c0.3-5.1-0.4-10.2-2.1-15
			c1.2-0.3,2.5-0.7,3.7-1.1c8.2-3.1,15.4-8.5,20.8-15.4c2.4-3,4.5-6.3,6.2-9.8l14.4-0.1v9.2c0,4.9,4,8.9,8.9,8.9H696
			c4.9,0,8.9-4,8.9-8.9V46.3C704.9,41.3,700.9,37.3,696,37.3z M94.5,257.9H17.9V55.2h76.7V257.9z M165.4,310.3
			c-10.8-4.1-23-19.3-21.9-32.1c0.2-1.9,2.2-6.6,6.7-13.7l0.1-0.1c4.1-6.3,8.5-12.4,13.2-18.2c11.5-14.2,24.3-27.1,31.2-31.2
			c2.5-1.5,5.4-2.3,8.3-2.2c6.6,0,13.4,3.7,17.9,8.6c1.4,1.5,8,9.3,3.5,15.4c-4.9,6.7-12.3,17.3-20.2,28.5
			c-10.6,15.1-22.7,32.2-31.6,44.5C172,310.4,170.7,312.3,165.4,310.3z M217.1,348.1c-10.9-0.4-23.5-7.8-28-16.4
			c-2.5-4.8-2.3-9.5,0.8-14.2c0.5-0.9,0.9-1.8,1.2-2.8c8.4-11.7,18.6-26.2,27.8-39.2c7.7-11,15-21.3,19.8-28c8.9-10,21.4-4.8,25.1-3
			c8.1,4.1,13.5,11.4,12.3,16.6c-3.5,15.4-23.4,45.8-36.6,65.8c-4.1,6.3-7.7,11.8-10.4,16.1C226.8,346.7,222.8,348.4,217.1,348.1z
			 M257.6,380.4c-2.2-1.3-21.5-13.1-13.3-28.1c2.5-4.1,6-9.4,10-15.4c12.8-19.5,29.8-45.4,36.7-64c4.9-2.3,13.5-1.2,21.5,2.9
			s13.5,10.5,13.3,15.3s-2.8,17.5-16.2,45.1c-8.4,17.2-18.4,34.8-24.9,45.4C281.5,386.7,270.3,387.7,257.6,380.4z M349.4,392.4
			c-4.8,3.8-22.5,2.2-33.3-4.6c-3.1-2-6.3-4.9-5.8-7.2c0.5-2.1,0.2-4.3-0.8-6.1c5.2-9.2,10.9-19.8,16-30.4
			c7.6-15.6,12.9-28.7,15.7-39c4.2-1.5,12.2-0.9,20.6,3.1c8.7,4.1,15,10.7,14.9,15.5C376.7,341.2,361.1,383.1,349.4,392.4
			L349.4,392.4z M534.8,265.4l-63.2-56.9c-3.7-3.3-9.3-3-12.6,0.7c-3.3,3.7-3,9.3,0.7,12.6l65.2,58.7c12.2,12.9,5.7,27.1-0.2,33.4
			c-4.4,4.8-14,11.2-22.1,4.6c-0.7-0.6-1.5-1.2-2.3-1.9c-0.3-0.3-0.6-0.5-0.9-0.8c-10.7-9.2-30.9-28-49.4-46.1
			c-3.5-3.5-9.2-3.4-12.6,0.1c-3.5,3.5-3.4,9.2,0.1,12.6c18.9,18.6,39,37.3,50.2,46.9c2.4,3.1,7,11.4-2.3,21.6
			c-6.9,7.5-19.1,12-28.1,5.5c-7-5-12.4-10.2-18.6-16.1c-4.7-4.5-10.1-9.7-16.8-15.3c-3.7-3.2-9.4-2.8-12.6,0.9s-2.8,9.4,0.9,12.6
			c0.1,0,0.1,0.1,0.2,0.1c6.3,5.3,11.2,10,16,14.5c2.1,2,4.2,4.1,6.4,6c0.5,0.9,1.1,1.7,1.9,2.4c3.1,2.8,1.2,11.3-2.4,17.5
			c-3.8,6.4-10.3,12-15.3,10.2c-11.3-3.9-26.6-13-34.4-17.9c7.2-17.4,12.1-36.5,12.1-47.8c0.1-12.2-9.5-24.4-25.1-31.8
			c-7.5-3.5-17.2-6.2-26.2-5.5c-1.8-10.4-10-20.3-22.7-26.7c-9.3-4.7-18.9-6.6-27.3-5.8c-2.2-10-10.1-19.6-21.6-25.4
			c-9.7-4.9-19.8-6.1-28.9-3.8c-1.6-5.9-4.7-11.2-8.8-15.6c-11.4-12.4-31.7-19.7-48.6-9.6c-10.6,6.4-25.5,22.4-35.9,35.3
			c-3.8,4.7-7,8.9-9.7,12.8c-6.9-3.3-16-5.5-27.5-6.7V71.4l35.2-0.2c15.6,0,35.5-7.4,58.6-16c24.2-9,51-19,76.6-21.8
			c-20.3,19.9-39.6,44.6-53.3,62.1c-3.8,4.8-7,9-9.7,12.4c-12.8,15.8-10.8,36.4,5,51.1c8.2,7.7,19.8,12.8,31.3,12.8
			c9.2,0.1,18-3.4,24.7-9.7c7-6.5,14.1-13.6,20.9-20.4c17-17,34.6-34.7,47.7-38.9c7.9-0.7,56.9,6.7,67.2,9.7
			c24.2,12.9,95.5,67.2,143.2,114.7c8.9,8.9,4.7,21.2-1.7,29.1C552,263.9,541.7,269.7,534.8,265.4z M582.7,239.8
			c0.2-9.5-3.5-18.6-10.3-25.2C537.6,179.9,460.1,115,424.1,96.3c-0.1-0.1-0.3-0.1-0.5-0.2h-0.1c-0.4-0.2-0.8-0.3-1.3-0.4
			c-5.9-1.8-23.5-4.8-38.2-7c-33.1-4.9-37.4-3.6-39.5-3c-17.4,5.3-35.9,23.8-55.5,43.5c-6.7,6.7-13.6,13.6-20.4,19.9
			c-9.3,8.6-23.2,4.8-31.7-3.1c-3.3-3.1-13.4-14.3-3.3-26.9c2.9-3.5,6.1-7.7,9.9-12.6c17.2-22,43.7-56,68-74.9
			c0.4-0.3,0.8-0.6,1.2-0.9c5.1-4,10.6-7.4,16.5-10.1c3.8-1.6,18.7-5,74.2-0.5c33.1,2.7,65.3,6.9,74.8,8.5
			c14.7,2.4,65.4,27.5,89.5,42.1c1.4,0.8,3,1.3,4.6,1.3h20.2v167.8L582.7,239.8z M687.1,257.9h-76.6V55.2h76.6L687.1,257.9z"/>
	</g>
</g>
</svg>
